<svg width="600" height="600" viewBox="0 0 600 600" fill="none" xmlns="http://www.w3.org/2000/svg">
<path d="M51.4995 367C53.2222 373.312 57.351 378.698 62.9995 382L110.75 409.75V464.75C110.75 471.38 113.383 477.739 118.072 482.428C122.76 487.116 129.119 489.75 135.75 489.75H190.75L218.5 537.5C220.681 541.278 223.813 544.42 227.585 546.613C231.357 548.806 235.637 549.974 240 550C244.487 549.999 248.891 548.79 252.75 546.5L300.25 519L348 546.5C350.838 548.163 353.977 549.25 357.236 549.698C360.495 550.146 363.811 549.946 366.993 549.11C370.175 548.274 373.16 546.818 375.778 544.825C378.396 542.833 380.595 540.344 382.25 537.5L409.749 489.75H464.75C471.38 489.75 477.739 487.116 482.427 482.428C487.116 477.739 489.75 471.38 489.75 464.75V409.75L537.5 382C543.218 378.702 547.4 373.276 549.133 366.907C550.866 360.537 550.009 353.74 546.75 348L519 300L546.75 252.25C550.009 246.51 550.866 239.713 549.133 233.343C547.4 226.974 543.218 221.548 537.5 218.25L489.75 190.75V135.75C489.75 129.12 487.116 122.761 482.427 118.072C477.739 113.384 471.38 110.75 464.75 110.75H409.749L382.25 63C378.889 57.2993 373.405 53.1638 367 51.5C363.824 50.6466 360.511 50.4281 357.25 50.8571C353.99 51.2861 350.846 52.3541 348 54L300 81.5L252.5 54C246.789 50.7197 240.015 49.8249 233.649 51.5101C227.283 53.1952 221.839 57.3242 218.5 63L190.75 110.75H135.75C129.119 110.75 122.76 113.384 118.072 118.072C113.383 122.761 110.75 129.12 110.75 135.75V190.75L63.2495 218.25C60.3848 219.883 57.8716 222.067 55.8545 224.676C53.8374 227.284 52.3563 230.266 51.4965 233.45C50.6367 236.633 50.4152 239.956 50.8448 243.225C51.2744 246.494 52.3465 249.647 53.9995 252.5L81.4995 300L53.9995 347.75C52.3204 350.63 51.2342 353.817 50.8049 357.122C50.3755 360.428 50.6117 363.787 51.4995 367ZM132 287.75L109.75 250L148.5 227.5C152.231 225.287 155.323 222.141 157.471 218.372C159.619 214.602 160.749 210.339 160.75 206V160.75H205.25C209.655 160.767 213.986 159.621 217.806 157.426C221.625 155.23 224.797 152.065 227 148.25L250 109.75L288.5 132C292.3 134.194 296.611 135.349 301 135.349C305.388 135.349 309.699 134.194 313.5 132L352.25 109.75L375 148.25C377.202 152.065 380.374 155.23 384.193 157.426C388.013 159.621 392.344 160.767 396.75 160.75H440.999V205.25C441.026 209.613 442.193 213.893 444.386 217.665C446.579 221.436 449.721 224.569 453.5 226.75L492 249.25L469.75 287.75C467.555 291.55 466.4 295.862 466.4 300.25C466.4 304.638 467.555 308.95 469.75 312.75L492 351.25L453.5 373.75C449.721 375.931 446.579 379.064 444.386 382.835C442.193 386.607 441.026 390.887 440.999 395.25V439.75H395.25C390.887 439.776 386.607 440.944 382.835 443.137C379.063 445.33 375.931 448.472 373.75 452.25L351.5 490.75L312.75 468.5C308.949 466.306 304.638 465.151 300.25 465.151C295.861 465.151 291.55 466.306 287.75 468.5L250 490.75L227.75 452.25C225.547 448.435 222.375 445.27 218.556 443.074C214.736 440.879 210.405 439.732 206 439.75H160.75V395.25C160.539 391.125 159.31 387.117 157.173 383.584C155.035 380.05 152.055 377.101 148.5 375L109.75 352.5L132 314C134.433 310.055 135.722 305.51 135.722 300.875C135.722 296.239 134.433 291.695 132 287.75Z" fill="#FFC300"/>
<path d="M390 240.21C390.03 238.75 389.93 225.56 377 212.86C364.27 200.36 351.43 200 350 200H249.96C247.57 200 235.03 200.63 222.88 213.02C210.36 225.78 210 238.59 210 240V270H200V300H210V360C210 367.34 214.06 373.73 220 377.21V390C220 392.652 221.054 395.196 222.929 397.071C224.804 398.946 227.348 400 230 400H240C242.652 400 245.196 398.946 247.071 397.071C248.946 395.196 250 392.652 250 390V380H350V390C350 392.652 351.054 395.196 352.929 397.071C354.804 398.946 357.348 400 360 400H370C372.652 400 375.196 398.946 377.071 397.071C378.946 395.196 380 392.652 380 390V377.23C383.034 375.49 385.556 372.981 387.311 369.956C389.067 366.932 389.994 363.497 390 360V300H400V270H390V240.21ZM270 220H330V240H270V220ZM245 360C241.02 359.999 237.204 358.417 234.391 355.602C231.578 352.787 229.999 348.97 230 344.99C230.001 341.01 231.583 337.194 234.398 334.381C237.213 331.568 241.03 329.989 245.01 329.99C248.99 329.991 252.806 331.573 255.619 334.388C258.432 337.203 260.011 341.02 260.01 345C260.009 348.98 258.427 352.796 255.612 355.609C252.797 358.422 248.98 360.001 245 360ZM290 310H230V260H290V310ZM355 360C351.02 359.999 347.204 358.417 344.391 355.602C341.578 352.787 339.999 348.97 340 344.99C340.001 341.01 341.583 337.194 344.398 334.381C347.213 331.568 351.03 329.989 355.01 329.99C358.99 329.991 362.806 331.573 365.619 334.388C368.432 337.203 370.011 341.02 370.01 345C370.009 348.98 368.427 352.796 365.612 355.609C362.797 358.422 358.98 360.001 355 360ZM370 310H310V260H370V310Z" fill="#FFC300"/>
</svg>
